<svg xmlns="http://www.w3.org/2000/svg" width="816.8" height="240.0" viewBox="0 0 816.8 240.0"><g transform="translate(0.00,188.80) scale(0.20000,-0.20000)"><path d="M541 0H39V114H109V536H39V650H535L555 460L441 450L421 536H243V383H517V270H243V114H427L447 200L561 190Z" fill="#F7EEE8"/></g><g transform="translate(118.60,188.80) scale(0.20000,-0.20000)"><path d="M313 0H39V114H109V536H39V650H313V536H243V114H313Z" fill="#F7EEE8"/></g><g transform="translate(189.00,188.80) scale(0.20000,-0.20000)"><path d="M584 438Q584 327 511.5 272.5Q439 218 343 218H243V114H343V0H39V114H109V536H39V650H337Q458 650 521.0 593.0Q584 536 584 438ZM440 436Q440 484 413.5 510.0Q387 536 320 536H243V331H318Q387 331 413.5 360.0Q440 389 440 436Z" fill="#F7EEE8"/></g><g transform="translate(308.60,188.80) scale(0.20000,-0.20000)"><path d="M41 288H280V180H41Z" fill="#F7EEE8"/></g><g transform="translate(372.80,188.80) scale(0.20000,-0.20000)"><path d="M71 492Q129 516 184.0 523.5Q239 531 272 531Q362 531 421.5 491.5Q481 452 481 370Q481 321 455.5 282.5Q430 244 369 219V215Q440 201 472.0 158.0Q504 115 504 55Q504 -46 430.0 -93.5Q356 -141 254 -141Q146 -141 92.0 -92.5Q38 -44 37 38L146 71Q146 36 170.0 4.5Q194 -27 253 -27Q310 -27 334.5 3.5Q359 34 359 71Q359 121 319.0 142.0Q279 163 207 165V253Q266 253 293.5 270.0Q321 287 329.0 309.5Q337 332 337 346Q337 417 253 417Q235 417 209.5 413.5Q184 410 168 402L153 328L50 339Z" fill="#F7EEE8"/></g><g transform="translate(479.40,188.80) scale(0.20000,-0.20000)"><path d="M545 254Q545 118 473.5 54.0Q402 -10 284 -10Q166 -10 98.5 53.0Q31 116 31 252Q31 376 97.0 453.5Q163 531 288 531Q421 531 483.0 452.5Q545 374 545 254ZM401 261Q401 353 369.5 383.0Q338 413 287 413Q233 413 204.5 381.5Q176 350 176 261Q176 171 205.0 139.5Q234 108 287 108Q336 108 368.5 137.0Q401 166 401 261Z" fill="#F7EEE8"/></g><g transform="translate(594.60,188.80) scale(0.20000,-0.20000)"><path d="M545 254Q545 118 473.5 54.0Q402 -10 284 -10Q166 -10 98.5 53.0Q31 116 31 252Q31 376 97.0 453.5Q163 531 288 531Q421 531 483.0 452.5Q545 374 545 254ZM401 261Q401 353 369.5 383.0Q338 413 287 413Q233 413 204.5 381.5Q176 350 176 261Q176 171 205.0 139.5Q234 108 287 108Q336 108 368.5 137.0Q401 166 401 261Z" fill="#F7EEE8"/></g><g transform="translate(709.80,188.80) scale(0.20000,-0.20000)"><path d="M31 305Q31 405 93.5 468.0Q156 531 263 531Q391 531 447.5 441.0Q504 351 504 210Q504 118 479.0 38.5Q454 -41 396.0 -90.0Q338 -139 240 -139Q184 -139 132.0 -119.0Q80 -99 46 -49L123 28Q162 -25 245 -25Q304 -25 329.0 16.0Q354 57 359 156Q360 163 360 179Q343 148 308.0 124.5Q273 101 214 101Q113 101 72.0 166.5Q31 232 31 305ZM169 310Q169 264 188.5 237.0Q208 210 258 210Q307 210 331.0 235.5Q355 261 357 300Q352 358 331.0 385.5Q310 413 261 413Q169 413 169 310Z" fill="#F7EEE8"/></g></svg>